<svg width="60" height="60" viewBox="0 0 60 60" fill="none" xmlns="http://www.w3.org/2000/svg">
<mask id="path-1-outside-1_279_854" maskUnits="userSpaceOnUse" x="15.5" y="13" width="30" height="40" fill="black">
<rect fill="white" x="15.5" y="13" width="30" height="40"/>
<path d="M27.9432 51.4332C24.4292 51.4332 21.6854 50.5186 19.7118 48.6894C17.7382 46.8121 16.7514 43.8998 16.7514 39.9526C16.7514 36.6312 17.4013 32.9728 18.7009 28.9774C20.0488 24.9821 22.1668 21.5403 25.055 18.6521C27.9913 15.7158 31.6979 14.2476 36.1746 14.2476C39.1109 14.2476 41.1808 14.8734 42.3842 16.1249C43.5877 17.3765 44.1894 18.9891 44.1894 20.9627C44.1894 22.6956 43.8043 23.9953 43.0341 24.8617C42.312 25.7282 41.4215 26.1614 40.3625 26.1614C39.4479 26.1614 38.6055 25.8726 37.8353 25.295C38.413 23.7546 38.7018 22.3346 38.7018 21.0349C38.7018 19.0613 38.0519 18.0745 36.7522 18.0745C35.3081 18.0745 33.864 19.2779 32.4199 21.6847C30.9758 24.0434 29.7724 26.8835 28.8097 30.2049C27.8951 33.4782 27.4378 36.3183 27.4378 38.7251C27.4378 42.7205 28.8819 44.7182 31.7701 44.7182C33.0698 44.7182 34.5139 44.3331 36.1024 43.5629C37.739 42.7445 39.1831 41.8059 40.4347 40.7469C39.135 47.8711 34.9712 51.4332 27.9432 51.4332Z"/>
</mask>
<path d="M27.9432 51.4332C24.4292 51.4332 21.6854 50.5186 19.7118 48.6894C17.7382 46.8121 16.7514 43.8998 16.7514 39.9526C16.7514 36.6312 17.4013 32.9728 18.7009 28.9774C20.0488 24.9821 22.1668 21.5403 25.055 18.6521C27.9913 15.7158 31.6979 14.2476 36.1746 14.2476C39.1109 14.2476 41.1808 14.8734 42.3842 16.1249C43.5877 17.3765 44.1894 18.9891 44.1894 20.9627C44.1894 22.6956 43.8043 23.9953 43.0341 24.8617C42.312 25.7282 41.4215 26.1614 40.3625 26.1614C39.4479 26.1614 38.6055 25.8726 37.8353 25.295C38.413 23.7546 38.7018 22.3346 38.7018 21.0349C38.7018 19.0613 38.0519 18.0745 36.7522 18.0745C35.3081 18.0745 33.864 19.2779 32.4199 21.6847C30.9758 24.0434 29.7724 26.8835 28.8097 30.2049C27.8951 33.4782 27.4378 36.3183 27.4378 38.7251C27.4378 42.7205 28.8819 44.7182 31.7701 44.7182C33.0698 44.7182 34.5139 44.3331 36.1024 43.5629C37.739 42.7445 39.1831 41.8059 40.4347 40.7469C39.135 47.8711 34.9712 51.4332 27.9432 51.4332Z" fill="black"/>
<path d="M19.7118 48.6894L19.0225 49.4141L19.0321 49.4229L19.7118 48.6894ZM18.7009 28.9774L17.7534 28.6578L17.75 28.6681L18.7009 28.9774ZM25.055 18.6521L24.3479 17.945L24.3479 17.945L25.055 18.6521ZM43.0341 24.8617L42.2867 24.1974L42.2761 24.2093L42.2659 24.2216L43.0341 24.8617ZM37.8353 25.295L36.899 24.9438L36.6359 25.6454L37.2353 26.095L37.8353 25.295ZM32.4199 21.6847L33.2728 22.2069L33.2774 22.1992L32.4199 21.6847ZM28.8097 30.2049L27.8492 29.9265L27.8466 29.9358L28.8097 30.2049ZM36.1024 43.5629L36.5387 44.4628L36.5496 44.4573L36.1024 43.5629ZM40.4347 40.7469L41.4185 40.9263L41.9194 38.1807L39.7888 39.9835L40.4347 40.7469ZM27.9432 50.4332C24.602 50.4332 22.1294 49.5666 20.3916 47.956L19.0321 49.4229C21.2415 51.4706 24.2565 52.4332 27.9432 52.4332V50.4332ZM20.401 47.9649C18.7008 46.3475 17.7514 43.7501 17.7514 39.9526H15.7514C15.7514 44.0495 16.7757 47.2767 19.0226 49.414L20.401 47.9649ZM17.7514 39.9526C17.7514 36.7598 18.3765 33.2074 19.6519 29.2868L17.75 28.6681C16.426 32.7381 15.7514 36.5026 15.7514 39.9526H17.7514ZM19.6485 29.2971C20.9487 25.4428 22.9864 22.1349 25.7621 19.3592L24.3479 17.945C21.3472 20.9457 19.1488 24.5214 17.7534 28.6578L19.6485 29.2971ZM25.7621 19.3592C28.4953 16.626 31.9402 15.2476 36.1746 15.2476V13.2476C31.4555 13.2476 27.4873 14.8055 24.3479 17.945L25.7621 19.3592ZM36.1746 15.2476C39.0166 15.2476 40.7437 15.8616 41.6634 16.818L43.1051 15.4318C41.6179 13.8852 39.2053 13.2476 36.1746 13.2476V15.2476ZM41.6634 16.818C42.6629 17.8575 43.1894 19.2093 43.1894 20.9627H45.1894C45.1894 18.7688 44.5125 16.8955 43.1051 15.4318L41.6634 16.818ZM43.1894 20.9627C43.1894 22.5686 42.8299 23.5862 42.2867 24.1974L43.7815 25.5261C44.7786 24.4044 45.1894 22.8226 45.1894 20.9627H43.1894ZM42.2659 24.2216C41.7197 24.877 41.1033 25.1614 40.3625 25.1614V27.1614C41.7397 27.1614 42.9044 26.5794 43.8023 25.5019L42.2659 24.2216ZM40.3625 25.1614C39.6761 25.1614 39.0421 24.9501 38.4353 24.495L37.2353 26.095C38.1689 26.7951 39.2197 27.1614 40.3625 27.1614V25.1614ZM38.7716 25.6461C39.3807 24.022 39.7018 22.4816 39.7018 21.0349H37.7018C37.7018 22.1875 37.4452 23.4872 36.899 24.9438L38.7716 25.6461ZM39.7018 21.0349C39.7018 19.9701 39.5322 18.9975 39.0496 18.2646C38.5188 17.4586 37.6987 17.0745 36.7522 17.0745V19.0745C37.1055 19.0745 37.2601 19.1837 37.3792 19.3645C37.5464 19.6184 37.7018 20.126 37.7018 21.0349H39.7018ZM36.7522 17.0745C34.7267 17.0745 33.0241 18.7341 31.5624 21.1702L33.2774 22.1992C34.704 19.8216 35.8895 19.0745 36.7522 19.0745V17.0745ZM31.5671 21.1626C30.0665 23.6135 28.8309 26.5398 27.8492 29.9265L29.7701 30.4833C30.7139 27.2272 31.8852 24.4733 33.2728 22.2069L31.5671 21.1626ZM27.8466 29.9358C26.9167 33.2638 26.4378 36.1985 26.4378 38.7251H28.4378C28.4378 36.4381 28.8735 33.6927 29.7728 30.474L27.8466 29.9358ZM26.4378 38.7251C26.4378 40.8134 26.8098 42.5599 27.7104 43.8057C28.6545 45.1117 30.0679 45.7182 31.7701 45.7182V43.7182C30.5841 43.7182 29.8313 43.3257 29.3313 42.634C28.7878 41.8822 28.4378 40.6322 28.4378 38.7251H26.4378ZM31.7701 45.7182C33.265 45.7182 34.8603 45.2764 36.5387 44.4627L35.6661 42.6631C34.1674 43.3897 32.8746 43.7182 31.7701 43.7182V45.7182ZM36.5496 44.4573C38.2494 43.6074 39.7617 42.6262 41.0806 41.5103L39.7888 39.9835C38.6045 40.9855 37.2287 41.8817 35.6552 42.6684L36.5496 44.4573ZM39.4509 40.5674C38.829 43.9766 37.5451 46.4122 35.687 48.0018C33.8325 49.5883 31.2878 50.4332 27.9432 50.4332V52.4332C31.6266 52.4332 34.6778 51.4971 36.9871 49.5215C39.2928 47.549 40.7407 44.6414 41.4185 40.9263L39.4509 40.5674Z" fill="white" mask="url(#path-1-outside-1_279_854)"/>
<mask id="path-3-outside-2_279_854" maskUnits="userSpaceOnUse" x="34.5" y="33" width="15" height="16" fill="black">
<rect fill="white" x="34.5" y="33" width="15" height="16"/>
<path d="M43.0775 47.1126L40.6996 45.9803V42.1588H37.331L36.0572 40.2055L36.1704 39.8375H40.6996V34.9969L41.0676 34.8837L43.4455 36.016V39.8375H46.8424L48.1162 41.7908L48.003 42.1588H43.4455V46.9994L43.0775 47.1126Z"/>
</mask>
<path d="M43.0775 47.1126L40.6996 45.9803V42.1588H37.331L36.0572 40.2055L36.1704 39.8375H40.6996V34.9969L41.0676 34.8837L43.4455 36.016V39.8375H46.8424L48.1162 41.7908L48.003 42.1588H43.4455V46.9994L43.0775 47.1126Z" fill="#FF4D4D"/>
<path d="M43.0775 47.1126L42.6475 48.0155L42.9992 48.183L43.3715 48.0684L43.0775 47.1126ZM40.6996 45.9803H39.6996V46.6117L40.2697 46.8832L40.6996 45.9803ZM40.6996 42.1588H41.6996V41.1588H40.6996V42.1588ZM37.331 42.1588L36.4934 42.705L36.7893 43.1588H37.331V42.1588ZM36.0572 40.2055L35.1014 39.9115L34.9636 40.3593L35.2195 40.7518L36.0572 40.2055ZM36.1704 39.8375V38.8375H35.4318L35.2146 39.5435L36.1704 39.8375ZM40.6996 39.8375V40.8375H41.6996V39.8375H40.6996ZM40.6996 34.9969L40.4055 34.0411L39.6996 34.2583V34.9969H40.6996ZM41.0676 34.8837L41.4975 33.9808L41.1458 33.8134L40.7735 33.9279L41.0676 34.8837ZM43.4455 36.016H44.4455V35.3846L43.8754 35.1131L43.4455 36.016ZM43.4455 39.8375H42.4455V40.8375H43.4455V39.8375ZM46.8424 39.8375L47.68 39.2913L47.3841 38.8375H46.8424V39.8375ZM48.1162 41.7908L49.072 42.0849L49.2098 41.637L48.9538 41.2445L48.1162 41.7908ZM48.003 42.1588V43.1588H48.7416L48.9588 42.4529L48.003 42.1588ZM43.4455 42.1588V41.1588H42.4455V42.1588H43.4455ZM43.4455 46.9994L43.7395 47.9552L44.4455 47.738V46.9994H43.4455ZM43.5074 46.2098L41.1295 45.0774L40.2697 46.8832L42.6475 48.0155L43.5074 46.2098ZM41.6996 45.9803V42.1588H39.6996V45.9803H41.6996ZM40.6996 41.1588H37.331V43.1588H40.6996V41.1588ZM38.1686 41.6125L36.8948 39.6593L35.2195 40.7518L36.4934 42.705L38.1686 41.6125ZM37.0129 40.4996L37.1262 40.1316L35.2146 39.5435L35.1014 39.9115L37.0129 40.4996ZM36.1704 40.8375H40.6996V38.8375H36.1704V40.8375ZM41.6996 39.8375V34.9969H39.6996V39.8375H41.6996ZM40.9937 35.9527L41.3617 35.8395L40.7735 33.9279L40.4055 34.0411L40.9937 35.9527ZM40.6377 35.7866L43.0155 36.9189L43.8754 35.1131L41.4975 33.9808L40.6377 35.7866ZM42.4455 36.016V39.8375H44.4455V36.016H42.4455ZM43.4455 40.8375H46.8424V38.8375H43.4455V40.8375ZM46.0048 40.3838L47.2786 42.337L48.9538 41.2445L47.68 39.2913L46.0048 40.3838ZM47.1605 41.4967L47.0472 41.8647L48.9588 42.4529L49.072 42.0849L47.1605 41.4967ZM48.003 41.1588H43.4455V43.1588H48.003V41.1588ZM42.4455 42.1588V46.9994H44.4455V42.1588H42.4455ZM43.1514 46.0436L42.7834 46.1568L43.3715 48.0684L43.7395 47.9552L43.1514 46.0436Z" fill="white" mask="url(#path-3-outside-2_279_854)"/>
</svg>
