<?xml version="1.0" encoding="UTF-8"?>
<svg id="Calque_1" xmlns="http://www.w3.org/2000/svg" xmlns:xlink="http://www.w3.org/1999/xlink" version="1.1" viewBox="0 0 60 60">
  <!-- Generator: Adobe Illustrator 29.1.0, SVG Export Plug-In . SVG Version: 2.1.0 Build 142)  -->
  <defs>
    <style>
      .st0 {
        mask: url(#mask);
      }

      .st1 {
        fill: none;
        stroke: #fff;
        stroke-miterlimit: 10;
      }

      .st2 {
        mask: url(#mask-1);
      }

      .st3 {
        fill: #ff4d4d;
      }

      .st4 {
        fill: #fff;
      }
    </style>
    <mask id="mask" x="11.9" y="8.8" width="33.2" height="44.3" maskUnits="userSpaceOnUse">
      <g id="path-1-outside-1_279_854">
        <rect class="st4" x="11.9" y="8.8" width="33.2" height="44.3"/>
        <path d="M25.7,51.3c-3.9,0-6.9-1-9.1-3-2.2-2.1-3.3-5.3-3.3-9.7s.7-7.7,2.2-12.2c1.5-4.4,3.8-8.2,7-11.4,3.3-3.3,7.4-4.9,12.3-4.9s5.5.7,6.9,2.1c1.3,1.4,2,3.2,2,5.4s-.4,3.4-1.3,4.3c-.8,1-1.8,1.4-3,1.4s-1.9-.3-2.8-1c.6-1.7,1-3.3,1-4.7,0-2.2-.7-3.3-2.2-3.3s-3.2,1.3-4.8,4c-1.6,2.6-2.9,5.8-4,9.4-1,3.6-1.5,6.8-1.5,9.4,0,4.4,1.6,6.6,4.8,6.6s3-.4,4.8-1.3c1.8-.9,3.4-1.9,4.8-3.1-1.4,7.9-6,11.8-13.8,11.8Z"/>
      </g>
    </mask>
    <mask id="mask-1" x="32.9" y="30.9" width="16.6" height="17.7" maskUnits="userSpaceOnUse">
      <g id="path-3-outside-2_279_854">
        <rect class="st4" x="32.9" y="30.9" width="16.6" height="17.7"/>
        <path d="M42.4,46.5l-2.6-1.3v-4.2h-3.7l-1.4-2.2v-.4h5.1v-5.4h.4c0-.1,2.6,1.1,2.6,1.1v4.2h3.8l1.4,2.2v.4h-5.2v5.4h-.4Z"/>
      </g>
    </mask>
  </defs>
  <path class="st1" d="M25.7,51.3c-3.9,0-6.9-1-9.1-3-2.2-2.1-3.3-5.3-3.3-9.7s.7-7.7,2.2-12.2c1.5-4.4,3.8-8.2,7-11.4,3.3-3.3,7.4-4.9,12.3-4.9s5.5.7,6.9,2.1c1.3,1.4,2,3.2,2,5.4s-.4,3.4-1.3,4.3c-.8,1-1.8,1.4-3,1.4s-1.9-.3-2.8-1c.6-1.7,1-3.3,1-4.7,0-2.2-.7-3.3-2.2-3.3s-3.2,1.3-4.8,4c-1.6,2.6-2.9,5.8-4,9.4-1,3.6-1.5,6.8-1.5,9.4,0,4.4,1.6,6.6,4.8,6.6s3-.4,4.8-1.3c1.8-.9,3.4-1.9,4.8-3.1-1.4,7.9-6,11.8-13.8,11.8Z"/>
  <g class="st0">
    <path class="st4" d="M16.5,48.3l-.8.8h0s.8-.8.8-.8ZM15.4,26.5l-1-.4h0s1.1.4,1.1.4ZM22.5,15l-.8-.8h0l.8.8ZM42.4,21.9l-.8-.7h0s0,0,0,0l.9.7ZM36.6,22.4l-1-.4-.3.8.7.5.7-.9ZM30.6,18.4l.9.6h0s-.9-.6-.9-.6ZM26.6,27.8l-1.1-.3h0s1.1.3,1.1.3ZM34.7,42.6l.5,1h0s-.5-1-.5-1ZM39.5,39.5l1.1.2.6-3-2.4,2,.7.8ZM25.7,50.2c-3.7,0-6.4-1-8.4-2.7l-1.5,1.6c2.4,2.3,5.8,3.3,9.9,3.3v-2.2ZM17.3,47.5c-1.9-1.8-2.9-4.7-2.9-8.9h-2.2c0,4.5,1.1,8.1,3.6,10.5l1.5-1.6ZM14.4,38.6c0-3.5.7-7.5,2.1-11.8l-2.1-.7c-1.5,4.5-2.2,8.7-2.2,12.5h2.2ZM16.5,26.8c1.4-4.3,3.7-7.9,6.8-11l-1.6-1.6c-3.3,3.3-5.8,7.3-7.3,11.9l2.1.7ZM23.2,15.8c3-3,6.8-4.6,11.5-4.6v-2.2c-5.2,0-9.6,1.7-13.1,5.2l1.6,1.6ZM34.8,11.3c3.1,0,5.1.7,6.1,1.7l1.6-1.5c-1.6-1.7-4.3-2.4-7.7-2.4v2.2ZM40.9,13c1.1,1.2,1.7,2.6,1.7,4.6h2.2c0-2.4-.7-4.5-2.3-6.1l-1.6,1.5ZM42.5,17.6c0,1.8-.4,2.9-1,3.6l1.7,1.5c1.1-1.2,1.6-3,1.6-5.1h-2.2ZM41.5,21.2c-.6.7-1.3,1-2.1,1v2.2c1.5,0,2.8-.6,3.8-1.8l-1.7-1.4ZM39.4,22.2c-.8,0-1.5-.2-2.1-.7l-1.3,1.8c1,.8,2.2,1.2,3.5,1.2v-2.2ZM37.7,22.8c.7-1.8,1-3.5,1-5.1h-2.2c0,1.3-.3,2.7-.9,4.3l2.1.8ZM38.7,17.7c0-1.2-.2-2.3-.7-3.1-.6-.9-1.5-1.3-2.5-1.3v2.2c.4,0,.6.1.7.3.2.3.4.8.4,1.8h2.2ZM35.4,13.3c-2.2,0-4.1,1.8-5.7,4.5l1.9,1.1c1.6-2.6,2.9-3.5,3.8-3.5v-2.2ZM29.7,17.8c-1.7,2.7-3,6-4.1,9.7l2.1.6c1-3.6,2.3-6.7,3.9-9.2l-1.9-1.2ZM25.6,27.5c-1,3.7-1.6,6.9-1.6,9.7h2.2c0-2.5.5-5.6,1.5-9.1l-2.1-.6ZM24,37.3c0,2.3.4,4.2,1.4,5.6,1,1.4,2.6,2.1,4.5,2.1v-2.2c-1.3,0-2.1-.4-2.7-1.2-.6-.8-1-2.2-1-4.3h-2.2ZM29.9,45c1.7,0,3.4-.5,5.3-1.4l-1-2c-1.7.8-3.1,1.2-4.3,1.2v2.2ZM35.2,43.6c1.9-.9,3.6-2,5-3.3l-1.4-1.7c-1.3,1.1-2.8,2.1-4.6,3l1,2ZM38.4,39.3c-.7,3.8-2.1,6.5-4.2,8.2-2.1,1.8-4.9,2.7-8.6,2.7v2.2c4.1,0,7.5-1,10-3.2,2.6-2.2,4.2-5.4,4.9-9.5l-2.2-.4Z"/>
  </g>
  <path class="st3" d="M42.4,46.5l-2.6-1.3v-4.2h-3.7l-1.4-2.2v-.4h5.1v-5.4h.4c0-.1,2.6,1.1,2.6,1.1v4.2h3.8l1.4,2.2v.4h-5.2v5.4h-.4Z"/>
  <g class="st2">
    <path class="st4" d="M42.4,46.5l-.5,1,.4.2h.4c0-.1-.3-1.2-.3-1.2ZM39.8,45.3h-1.1v.7l.6.3.5-1ZM39.8,41.1h1.1v-1.1h-1.1v1.1ZM36.1,41.1l-.9.6.3.5h.6v-1.1ZM34.6,38.9l-1.1-.3-.2.5.3.4.9-.6ZM34.8,38.5v-1.1h-.8l-.2.8,1.1.3ZM39.8,38.5v1.1h1.1v-1.1h-1.1ZM39.8,33.1l-.3-1.1-.8.2v.8h1.1ZM40.2,33l.5-1-.4-.2h-.4c0,.1.3,1.2.3,1.2ZM42.8,34.3h1.1v-.7l-.6-.3-.5,1ZM42.8,38.5h-1.1v1.1h1.1v-1.1ZM46.6,38.5l.9-.6-.3-.5h-.6v1.1ZM48,40.6l1.1.3.2-.5-.3-.4-.9.6ZM47.9,41.1v1.1h.8l.2-.8-1.1-.3ZM42.8,41.1v-1.1h-1.1v1.1h1.1ZM42.8,46.4l.3,1.1.8-.2v-.8h-1.1ZM42.9,45.5l-2.6-1.3-1,2,2.6,1.3,1-2ZM40.9,45.3v-4.2h-2.2v4.2h2.2ZM39.8,39.9h-3.7v2.2h3.7v-2.2ZM37,40.5l-1.4-2.2-1.9,1.2,1.4,2.2,1.9-1.2ZM35.7,39.2v-.4c.1,0-2-.7-2-.7v.4c-.1,0,2,.7,2,.7ZM34.8,39.6h5v-2.2h-5v2.2ZM40.9,38.5v-5.4h-2.2v5.4h2.2ZM40.1,34.2h.4c0-.1-.7-2.2-.7-2.2h-.4c0,.1.7,2.2.7,2.2ZM39.7,34l2.6,1.3,1-2-2.6-1.3-1,2ZM41.7,34.3v4.2h2.2v-4.2h-2.2ZM42.8,39.6h3.8v-2.2h-3.8v2.2ZM45.7,39.1l1.4,2.2,1.9-1.2-1.4-2.2-1.9,1.2ZM46.9,40.3v.4c-.1,0,2,.7,2,.7v-.4c.1,0-2-.7-2-.7ZM47.9,39.9h-5v2.2h5v-2.2ZM41.7,41.1v5.4h2.2v-5.4h-2.2ZM42.5,45.4h-.4c0,.1.7,2.2.7,2.2h.4c0-.1-.7-2.2-.7-2.2Z"/>
  </g>
</svg>