<svg width="53" height="53" viewBox="0 0 53 53" fill="none" xmlns="http://www.w3.org/2000/svg">
  <path d="M11.0416 28.1776C11.0416 25.1792 11.0416 23.68 11.6477 22.3622C12.2538 21.0444 13.3921 20.0688 15.6686 18.1174L17.877 16.2246C21.9918 12.6976 24.0492 10.9341 26.5 10.9341C28.9507 10.9341 31.0081 12.6976 35.1229 16.2246L37.3313 18.1174C39.6078 20.0688 40.7461 21.0444 41.3522 22.3622C41.9583 23.68 41.9583 25.1792 41.9583 28.1776V37.5418C41.9583 41.7058 41.9583 43.7879 40.6647 45.0815C39.3711 46.3751 37.289 46.3751 33.125 46.3751H19.875C15.7109 46.3751 13.6288 46.3751 12.3352 45.0815C11.0416 43.7879 11.0416 41.7058 11.0416 37.5418V28.1776Z" stroke="#F9F9F9" stroke-width="1.5"/>
  <path d="M32.0208 46.375V34.125C32.0208 33.5727 31.5731 33.125 31.0208 33.125H21.9791C21.4268 33.125 20.9791 33.5727 20.9791 34.125V46.375" stroke="#F9F9F9" stroke-width="1.5" stroke-linecap="round" stroke-linejoin="round"/>
</svg>
