<svg width="60" height="60" viewBox="0 0 60 60" fill="none" xmlns="http://www.w3.org/2000/svg">
<path d="M46.178 15.7593L45.3465 16.3149L45.3465 16.3149L46.178 15.7593ZM46.178 38.8244L45.3465 38.2688L45.3465 38.2688L46.178 38.8244ZM43.7408 41.2615L44.2964 42.0929L44.2964 42.0929L43.7408 41.2615ZM34.4166 42.7472L34.4123 41.7472C33.8617 41.7496 33.4166 42.1966 33.4166 42.7472H34.4166ZM34.4166 42.7502L35.3111 43.1974C35.3805 43.0585 35.4166 42.9054 35.4166 42.7502H34.4166ZM25.5833 42.7502H24.5833C24.5833 42.9054 24.6195 43.0585 24.6889 43.1974L25.5833 42.7502ZM25.5833 42.7472H26.5833C26.5833 42.1966 26.1383 41.7496 25.5877 41.7472L25.5833 42.7472ZM16.2591 41.2615L15.7035 42.0929L15.7035 42.0929L16.2591 41.2615ZM13.822 38.8244L14.6535 38.2688L14.6535 38.2688L13.822 38.8244ZM13.822 15.7593L12.9905 15.2037L13.822 15.7593ZM16.2591 13.3222L15.7035 12.4907L15.7035 12.4907L16.2591 13.3222ZM43.7408 13.3222L44.2964 12.4907L44.2964 12.4907L43.7408 13.3222ZM48.6666 27.2918C48.6666 24.2111 48.6679 21.8253 48.4754 19.9337C48.2813 18.0254 47.8819 16.5094 47.0094 15.2037L45.3465 16.3149C45.9627 17.2372 46.3076 18.3859 46.4857 20.1361C46.6654 21.903 46.6666 24.1695 46.6666 27.2918H48.6666ZM47.0094 39.3799C47.8819 38.0743 48.2813 36.5583 48.4754 34.65C48.6679 32.7583 48.6666 30.3725 48.6666 27.2918H46.6666C46.6666 30.4142 46.6654 32.6806 46.4857 34.4475C46.3076 36.1977 45.9627 37.3465 45.3465 38.2688L47.0094 39.3799ZM44.2964 42.0929C45.3701 41.3755 46.292 40.4536 47.0094 39.3799L45.3465 38.2688C44.775 39.1241 44.0406 39.8585 43.1853 40.43L44.2964 42.0929ZM34.421 43.7471C36.7987 43.7368 38.7058 43.6914 40.2727 43.4748C41.8556 43.256 43.1559 42.855 44.2964 42.0929L43.1853 40.43C42.3794 40.9685 41.4002 41.2999 39.9988 41.4936C38.5813 41.6896 36.7995 41.7368 34.4123 41.7472L34.421 43.7471ZM35.4166 42.7502V42.7472H33.4166V42.7502H35.4166ZM31.7888 50.2419L35.3111 43.1974L33.5222 42.303L30 49.3474L31.7888 50.2419ZM28.2111 50.2419C28.9482 51.716 31.0518 51.716 31.7888 50.2419L30 49.3474L30 49.3474L28.2111 50.2419ZM24.6889 43.1974L28.2111 50.2419L30 49.3474L26.4777 42.303L24.6889 43.1974ZM24.5833 42.7472V42.7502H26.5833V42.7472H24.5833ZM15.7035 42.0929C16.844 42.855 18.1444 43.256 19.7273 43.4748C21.2941 43.6914 23.2012 43.7368 25.579 43.7471L25.5877 41.7472C23.2005 41.7368 21.4186 41.6896 20.0012 41.4936C18.5998 41.2999 17.6205 40.9685 16.8147 40.43L15.7035 42.0929ZM12.9905 39.3799C13.708 40.4536 14.6298 41.3755 15.7035 42.0929L16.8147 40.43C15.9594 39.8585 15.225 39.1241 14.6535 38.2688L12.9905 39.3799ZM11.3333 27.2918C11.3333 30.3725 11.3321 32.7583 11.5245 34.65C11.7187 36.5583 12.1181 38.0743 12.9905 39.3799L14.6535 38.2688C14.0372 37.3465 13.6923 36.1977 13.5143 34.4475C13.3345 32.6806 13.3333 30.4142 13.3333 27.2918H11.3333ZM12.9905 15.2037C12.1181 16.5094 11.7187 18.0254 11.5245 19.9337C11.3321 21.8253 11.3333 24.2111 11.3333 27.2918H13.3333C13.3333 24.1695 13.3345 21.903 13.5143 20.1361C13.6923 18.3859 14.0372 17.2372 14.6535 16.3149L12.9905 15.2037ZM15.7035 12.4907C14.6298 13.2081 13.708 14.13 12.9905 15.2037L14.6535 16.3149C15.225 15.4595 15.9594 14.7252 16.8147 14.1537L15.7035 12.4907ZM27.7916 10.8335C24.7109 10.8335 22.3251 10.8323 20.4335 11.0247C18.5252 11.2188 17.0092 11.6183 15.7035 12.4907L16.8147 14.1537C17.737 13.5374 18.8857 13.1925 20.6359 13.0144C22.4028 12.8347 24.6693 12.8335 27.7916 12.8335V10.8335ZM32.2083 10.8335H27.7916V12.8335H32.2083V10.8335ZM44.2964 12.4907C42.9907 11.6183 41.4748 11.2188 39.5664 11.0247C37.6748 10.8323 35.289 10.8335 32.2083 10.8335V12.8335C35.3306 12.8335 37.5971 12.8347 39.364 13.0144C41.1142 13.1925 42.263 13.5374 43.1853 14.1537L44.2964 12.4907ZM47.0094 15.2037C46.292 14.13 45.3701 13.2081 44.2964 12.4907L43.1853 14.1537C44.0406 14.7252 44.775 15.4595 45.3465 16.3149L47.0094 15.2037Z" fill="#F9F9F9"/>
<ellipse cx="38.8333" cy="27.2918" rx="2.20833" ry="2.20833" fill="#F9F9F9"/>
<circle cx="30" cy="27.2918" r="2.20833" fill="#F9F9F9"/>
<ellipse cx="21.1666" cy="27.2918" rx="2.20833" ry="2.20833" fill="#F9F9F9"/>
</svg>
