<svg width="24" height="24" viewBox="0 0 24 24" fill="none" xmlns="http://www.w3.org/2000/svg">
<path d="M21.2183 11.5221L12.5838 6.73683C12.4421 6.65826 12.2827 6.61695 12.1207 6.61678C11.9587 6.61662 11.7992 6.65759 11.6574 6.73587L3.065 11.4828C2.9155 11.5654 2.79083 11.6865 2.70391 11.8335C2.61699 11.9805 2.571 12.1481 2.57071 12.3189C2.57042 12.4897 2.61583 12.6575 2.70225 12.8048C2.78866 12.9521 2.91292 13.0736 3.06213 13.1567L11.6966 17.9802C11.8388 18.0601 11.999 18.1021 12.1621 18.1023C12.3251 18.1025 12.4855 18.0607 12.6278 17.9812L21.2202 13.1959C21.3694 13.1129 21.4938 12.9915 21.5803 12.8442C21.6668 12.697 21.7123 12.5292 21.7121 12.3584C21.7119 12.1876 21.666 12.02 21.5792 11.873C21.4923 11.7259 21.3677 11.6047 21.2183 11.5221ZM12.1636 16.0489L5.49877 12.326L12.1187 8.66815L18.7835 12.3614L12.1636 16.0489Z" fill="#6B6D70"/>
<path d="M12.1416 21.93C12.3041 21.9301 12.4639 21.8886 12.6058 21.8094L21.2192 17.0242L20.2899 15.3513L12.1416 19.8781L3.99237 15.3513L3.06308 17.0242L11.6765 21.8094C11.8188 21.8885 11.9788 21.93 12.1416 21.93ZM19.798 2.78906H17.8839V4.70316H15.9698V6.61725H17.8839V8.53134H19.798V6.61725H21.7121V4.70316H19.798V2.78906Z" fill="#6B6D70"/>
</svg>
