<svg width="24" height="24" viewBox="0 0 24 24" fill="none" xmlns="http://www.w3.org/2000/svg">
<path d="M21.5083 8.53016C21.5081 8.35935 21.4622 8.19171 21.3754 8.04462C21.2885 7.89753 21.1639 7.77637 21.0144 7.6937L12.38 2.90846C12.2381 2.8303 12.0787 2.78931 11.9167 2.78931C11.7548 2.78931 11.5954 2.8303 11.4535 2.90846L2.86117 7.65542C2.7119 7.73807 2.58745 7.85913 2.50069 8.00605C2.41393 8.15297 2.36803 8.32041 2.36774 8.49103C2.36745 8.66165 2.41277 8.82925 2.49902 8.97647C2.58527 9.12369 2.70931 9.24517 2.8583 9.32833L11.4928 14.1518C11.6349 14.2317 11.7952 14.2738 11.9583 14.2739C12.1213 14.2741 12.2817 14.2324 12.424 14.1528L21.0163 9.36757C21.1656 9.28457 21.2899 9.16315 21.3764 9.0159C21.4629 8.86865 21.5084 8.70093 21.5083 8.53016ZM11.9598 12.2196L5.2959 8.49762L11.9158 4.83978L18.5807 8.53303L11.9598 12.2196Z" fill="#6B6D70"/>
<path d="M20.087 11.5228L11.9378 16.0497L3.78852 11.5228L2.85923 13.1957L11.4726 17.981C11.6148 18.0599 11.7747 18.1013 11.9373 18.1013C12.0999 18.1013 12.2598 18.0599 12.4019 17.981L21.0154 13.1957L20.087 11.5228Z" fill="#6B6D70"/>
<path d="M20.087 15.351L11.9378 19.8778L3.78852 15.351L2.85923 17.0239L11.4726 21.8092C11.6148 21.8881 11.7747 21.9295 11.9373 21.9295C12.0999 21.9295 12.2598 21.8881 12.4019 21.8092L21.0154 17.0239L20.087 15.351Z" fill="#6B6D70"/>
</svg>
