<svg width="24" height="24" viewBox="0 0 24 24" fill="none" xmlns="http://www.w3.org/2000/svg">
<path d="M6.94873 11.4022H8.86283V13.3163H6.94873V11.4022ZM6.94873 15.2304H8.86283V17.1445H6.94873V15.2304ZM10.7769 11.4022H12.691V13.3163H10.7769V11.4022ZM10.7769 15.2304H12.691V17.1445H10.7769V15.2304ZM14.6051 11.4022H16.5192V13.3163H14.6051V11.4022ZM14.6051 15.2304H16.5192V17.1445H14.6051V15.2304Z" fill="#6B6D70"/>
<path d="M5.03464 21.9298H18.4333C19.4889 21.9298 20.3474 21.0713 20.3474 20.0157V6.61701C20.3474 5.56138 19.4889 4.70291 18.4333 4.70291H16.5192V2.78882H14.6051V4.70291H8.86283V2.78882H6.94873V4.70291H5.03464C3.97902 4.70291 3.12054 5.56138 3.12054 6.61701V20.0157C3.12054 21.0713 3.97902 21.9298 5.03464 21.9298ZM18.4333 8.5311L18.4342 20.0157H5.03464V8.5311H18.4333Z" fill="#6B6D70"/>
</svg>
